<svg xmlns="http://www.w3.org/2000/svg" width="960" height="440" viewBox="0 0 960 440">
<defs><symbol id="mark" viewBox="0 0 64 64" fill="none">
  <rect width="64" height="64" rx="14" fill="#243A35"/>
  <path d="M21 14h17l9 9v24a4 4 0 0 1-4 4H21a4 4 0 0 1-4-4V18a4 4 0 0 1 4-4Z" fill="#F8F3E8"/>
  <path d="M38 14v6a3 3 0 0 0 3 3h6" fill="#A9C0B5"/>
  <path d="M24 28h15M27 34h12" stroke="#243A35" stroke-width="3" stroke-linecap="round"/>
  <path d="m24 41 4 4 4-4 4 4 4-4" stroke="#243A35" stroke-width="3" stroke-linecap="round" stroke-linejoin="round"/>
</symbol></defs>
<rect width="960" height="440" rx="20" fill="#F8F3E8"/>
<text x="48" y="58" font-family="system-ui,sans-serif" font-size="16" fill="#607169">WRITESHAPE · APPLICATION MARK</text>
<use href="#mark" x="48" y="94" width="128" height="128"/>
<text x="200" y="169" font-family="system-ui,sans-serif" font-size="44" font-weight="600" letter-spacing="-1.5" fill="#243A35">WriteShape</text>
<text x="49" y="283" font-family="system-ui,sans-serif" font-size="14" fill="#607169">Favicon, toolbar, and install sizes</text>
<use href="#mark" x="49" y="326" width="16" height="16"/>
<use href="#mark" x="105" y="322" width="24" height="24"/>
<use href="#mark" x="177" y="318" width="32" height="32"/>
<use href="#mark" x="264" y="302" width="64" height="64"/>
<g font-family="system-ui,sans-serif" font-size="12" fill="#607169"><text x="49" y="390">16</text><text x="107" y="390">24</text><text x="185" y="390">32</text><text x="287" y="390">64</text></g>
<rect x="584" y="32" width="344" height="376" rx="16" fill="#172520"/>
<use href="#mark" x="660" y="99" width="192" height="192"/>
<text x="690" y="348" font-family="system-ui,sans-serif" font-size="24" font-weight="500" fill="#F8F3E8">WriteShape</text>
</svg>